<?xml version="1.0" encoding="utf-8"?>
<!-- Generator: Adobe Illustrator 19.2.1, SVG Export Plug-In . SVG Version: 6.00 Build 0)  -->
<svg version="1.1" id="layer" xmlns="http://www.w3.org/2000/svg" xmlns:xlink="http://www.w3.org/1999/xlink" x="0px" y="0px"
	 viewBox="0 0 652 652" style="enable-background:new 0 0 652 652;" xml:space="preserve">
<style type="text/css">
	.st0{fill:#231815;}
	.st1{fill:#C30813;}
</style>
<g>
	<path class="st0" d="M745.9,546.3c6.8,0,12.6-5.2,12.6-12.4c0-7.2-5.8-12.4-12.6-12.4c-6.9,0-12.6,5.2-12.6,12.4
		C733.2,541,739,546.3,745.9,546.3 M745.9,523.5c5.6,0,10,4.4,10,10.3c0,6-4.5,10.4-10,10.4c-5.7,0-10.1-4.4-10.1-10.4
		C735.7,528,740.1,523.5,745.9,523.5"/>
	<path class="st0" d="M743.2,534.8h2.5l3.7,6.2h2.4l-4.1-6.3c2.1-0.3,3.7-1.4,3.7-4c0-2.8-1.7-4.1-5.1-4.1H741V541h2.2V534.8
		 M743.2,528.6h2.9c1.5,0,3.1,0.3,3.1,2.1c0,2.2-1.6,2.4-3.5,2.4h-2.6V528.6z"/>
	<path class="st1" d="M468.5,473.8h-26.2l-34,61.4h26.1l4.4-10.1H472l5.2,10.1h25.3L468.5,473.8z M444,514.1l11.4-23.5l11.3,23.5
		H444z"/>
	<polygon class="st1" points="81.8,504 99.3,518.3 119.3,535.1 141.1,535.1 141.1,473.8 115,473.8 116.7,505.7 99.3,490.6 
		79.2,473.8 57.4,473.8 57.4,535.1 83.6,535.1 	"/>
	<polygon class="st1" points="224.3,522.5 194.7,522.5 194.7,510.8 220.8,510.8 220.8,497.3 194.7,497.3 194.7,487.2 223.4,487.2 
		223.4,473.8 168.5,473.8 168.5,535.1 224.3,535.1 	"/>
	<rect x="-1.4" y="473.8" class="st1" width="25.3" height="61.4"/>
	<path class="st1" d="M581.3,509c-4.4-3.6-6.7-2.1-4.8-2.8c0.5-0.2,1-0.4,1.4-0.6c3.2-1.5,5.7-3.6,7.6-6c1.9-2.4,2.8-5.4,2.8-8.8
		c0-3.9-1.2-7.2-3.6-10c-2.4-2.7-5.5-4.6-9.4-5.6c-3.9-1-9.6-1.5-17-1.5h-39.9v61.4h25.7v-24.9h6.4c2.2,0,4.1,0.5,5.9,1.4
		c1.3,0.8,4.2,3.4,5.8,5.8l9.6,17.7H597C597,535.1,583.8,511.1,581.3,509 M561,498.6c-2.3,2.1-7.4,2-8.5,2h-8.4v-16.3h8.8
		c4.3,0,6.1,0.7,7.7,1.6c1.6,0.9,3.5,3,3.5,6.3C564.3,496.2,562.1,497.7,561,498.6"/>
	<path class="st1" d="M761.9,577.2l-90.8-74.8l28.8-29.6h-35.2L638,500.7v-27.8h-26.8v62.2H638v-25.8l51.2,42l-300.5-0.1v-77.4
		h-27.9l-40.9,42l-40.1-42h-27.9v77.4H-3.2v-0.1h-54.2c0,0-5.3-1.2-11.2-5.5c-4.3-3.1-11.8-9.3-11.8-23.3c0-14,11.4-25.3,25.5-25.3
		c7.8,0,14.7,3.4,19.5,8.7l12.5-28c-9-6.3-20-10-31.9-10c-30.6,0-55.3,24.4-55.3,54.5c0,30.1,24.8,54.8,55.3,54.8c0.5,0,0.9,0,1.3,0
		l0,0h0.9v0H284l-0.8-55.5l36.6,37.8l37.5-37.8l-0.9,55.5L761.9,577.2"/>
	<path class="st1" d="M342.7,393.5c-1.1,0-2.1,0.1-3.3,0.1c-78.9,0-142.9-63.6-142.9-141.3c0-77.7,64-140.7,142.9-140.7
		c30.7,0,59.1,9.6,82.3,25.9l-32.1,72.1c-12.2-13.8-30.1-22.6-50.2-22.6c-36.6,0-65.9,29.3-65.9,65.3c0,36.1,22.5,63.2,59.1,63.2
		h161.3V77.2H143.3v350.6h350.6v-34.3L342.7,393.5L342.7,393.5"/>
</g>
</svg>
